<?xml version="1.0" encoding="utf-8"?>
<!-- Svg Vector Icons : http://www.onlinewebfonts.com/icon -->
<!DOCTYPE svg PUBLIC "-//W3C//DTD SVG 1.1//EN" "http://www.w3.org/Graphics/SVG/1.1/DTD/svg11.dtd">
<svg version="1.1" xmlns="http://www.w3.org/2000/svg" xmlns:xlink="http://www.w3.org/1999/xlink" x="0px" y="0px" viewBox="0 0 1000 1000" enable-background="new 0 0 1000 1000" xml:space="preserve">
<metadata> Svg Vector Icons : http://www.onlinewebfonts.com/icon </metadata>
<g><g transform="translate(0.000000,511.000000) scale(0.100000,-0.100000)"><path d="M2529.4,4989.7c-584.6-121-968.2-715.9-820.5-1277.9c94.4-361,365.1-650.2,709.7-754.8l141.5-43.1v-469.7v-471.8l-121-178.4C1508,405.3,861.8-911.6,681.3-1795.7c-49.2-240-53.3-289.2-43.1-609.2C658.7-3012,790-3467.4,1064.9-3892c108.7-166.1,418.5-477.9,582.6-584.6c775.3-506.6,1850.2-387.7,2490.1,274.9c617.4,640,845.1,1729.2,564.1,2703.5C4463.7-671.6,3957.1,335.5,3151,1582.6l-242,375.4l4.1,482l6.2,480l133.3,45.1c438.9,147.7,717.9,535.4,717.9,998.9C3770.4,4614.3,3159.2,5118.9,2529.4,4989.7z M3187.9,70.9c320-545.6,574.3-1091.2,668.7-1440c57.4-219.5,63.6-555.9,10.3-758.9c-145.6-555.9-574.3-902.5-1122-906.6c-531.3-4.1-935.4,276.9-1115.9,779.4c-199,557.9-49.2,1132.3,588.7,2244c106.7,184.6,264.6,445.1,350.7,578.4l160,246.2L2872,587.8C2952,464.7,3093.5,233,3187.9,70.9z"/><path d="M7038,4981.5c-279-67.7-547.7-274.9-676.9-516.9c-311.8-586.6-36.9-1290.2,588.7-1499.4l133.3-45.1l6.2-486.1l4.1-486.1l-221.5-340.5c-863.6-1316.9-1431.8-2481.9-1626.6-3325c-61.5-272.8-75.9-748.7-30.8-1062.5c59.5-406.1,176.4-744.6,365.1-1052.3c147.7-244.1,480-570.3,713.8-701.5c607.1-340.5,1364-340.5,1969.1,0c223.6,127.2,516.9,404.1,668.7,635.9c309.7,463.6,455.4,1025.6,432.8,1677.9c-10.3,350.8-59.5,601-194.9,994.8c-262.5,767.2-787.7,1768.1-1485.1,2832.7l-221.5,340.5l4.1,486.1l6.2,486.1l133.3,45.1c744.6,250.3,962,1181.5,404.1,1739.4C7760,4954.8,7378.5,5063.5,7038,4981.5z M7438,565.2c543.6-838.9,941.5-1684,1011.2-2145.5c28.7-188.7,0-459.5-65.6-658.4c-127.2-375.4-414.4-654.3-787.7-761c-160-47.2-451.3-47.2-623.6-2c-373.3,96.4-670.7,381.5-800,763c-65.6,199-94.3,469.7-65.6,658.4c59.5,404.1,377.4,1117.9,808.2,1821.5C7077,505.8,7263.6,784.7,7278,784.7C7286.2,784.7,7358,686.3,7438,565.2z"/></g></g>
</svg>