<?xml version="1.0" encoding="utf-8"?>
<!-- Svg Vector Icons : http://www.onlinewebfonts.com/icon -->
<!DOCTYPE svg PUBLIC "-//W3C//DTD SVG 1.1//EN" "http://www.w3.org/Graphics/SVG/1.1/DTD/svg11.dtd">
<svg version="1.1" xmlns="http://www.w3.org/2000/svg" xmlns:xlink="http://www.w3.org/1999/xlink" x="0px" y="0px" viewBox="0 0 1000 1000" enable-background="new 0 0 1000 1000" xml:space="preserve">
<metadata> Svg Vector Icons : http://www.onlinewebfonts.com/icon </metadata>
<g><g transform="translate(0.000000,511.000000) scale(0.100000,-0.100000)"><path d="M156.3,4952c-41.7-43.8-56.3-79.2-56.3-143.9c0-73,18.8-112.6,120.9-250.2c258.6-346.1,596.3-688.1,1000.8-1015.4c143.9-116.8,150.1-125.1,150.1-210.6c0-208.5,116.8-414.9,306.5-546.3l110.5-75.1V2135v-575.5l-73-39.6c-93.8-52.1-223.1-189.7-285.7-308.6c-37.5-70.9-48-123-48-246c0-177.2,39.6-275.2,171-419.1l75.1-83.4l-231.4-235.6C1184.3,12.4,1163.4-14.7,1163.4-85.6c0-106.3,631.8-1584.7,711-1663.9c41.7-41.7,77.1-58.4,131.4-58.4c139.7,0,171,54.2,504.6,834C2885.7-96,2879.4-114.8,2850.3-41.8c-10.4,33.3-120.9,158.5-241.9,281.5l-221,223.1l93.8,104.3c156.4,173.1,200.2,383.7,129.3,594.2c-39.6,112.6-198.1,298.2-308.6,356.6l-75.1,41.7V2135v577.6l75.1,43.8c93.8,56.3,102.2,56.3,264.8-18.8c319-143.9,957.1-333.6,1328.2-396.2c75.1-10.4,164.7-27.1,202.3-31.3c58.4-10.4,70.9-25,100.1-114.7c68.8-208.5,275.2-423.3,500.4-523.4l93.8-41.7V850.6V72.9l-89.7-52.1C4524.6-83.5,4397.4-269.1,4364-467.2c-16.7-110.5,29.2-277.3,110.5-400.4l60.5-89.6l-68.8-102.2c-87.6-131.4-125.1-302.3-91.7-429.5c31.3-131.4,87.6-233.5,173.1-319l73-73l-342-346.1c-310.7-314.9-342-354.5-342-419.1c0-102.2,854.9-2030.9,930-2097.6c70.9-62.5,196-62.5,266.9,2.1c60.4,52.1,929.9,1993.4,929.9,2074.7c0,85.5-54.2,156.4-373.2,473.3L5375.3-1883l81.3,85.5c210.6,216.9,237.7,498.3,73,744.4l-73,106.3l41.7,43.8c22.9,25,62.5,91.7,89.7,148c120.9,271.1-4.2,606.8-289.8,775.7l-89.6,52.1v777.7v779.8l93.8,41.7c225.2,100.1,431.6,314.9,500.4,521.3l33.3,102.2l150.1,25c442.1,70.9,1027.9,237.7,1401.2,398.3c104.3,45.9,198.1,81.3,212.7,81.3c12.5,0,58.4-18.8,98-43.8l75.1-43.8v-579.7v-579.6l-62.6-25c-100.1-41.7-283.6-254.4-323.2-377.4c-73-216.9-14.6-444.1,158.5-619.3l68.8-68.8l-223.1-223.1c-120.9-123-231.5-248.1-241.9-281.5c-29.2-73-35.4-54.2,339.9-932.1c331.5-777.7,367-834,502.5-834c43.8,0,91.7,18.8,125.1,47.9c73,62.6,719.4,1570.1,719.4,1676.4c0,66.7-22.9,100.1-233.5,310.7l-231.4,235.6l75.1,83.4c131.4,143.9,171,241.9,171,419.1c0,123-10.4,175.1-47.9,246c-62.6,118.9-191.8,256.5-285.7,308.6l-73,39.6V2135v575.5l110.5,75.1c189.8,131.4,306.5,337.8,306.5,546.3c0,85.5,4.2,91.7,214.8,262.7c273.2,223.1,648.5,598.4,850.7,852.8c189.8,237.7,206.4,266.9,206.4,367c0,118.8-83.4,196-206.4,196h-93.8l-610.9-608.9c-575.5-575.5-610.9-606.8-646.4-573.4c-77.1,68.8-223.1,118.8-350.3,118.8c-333.6,0-636-306.5-636-644.3V3163l-246-95.9c-294-118.8-669.3-227.3-971.7-285.7c-327.3-64.6-323.2-64.6-408.7,85.5c-129.3,225.2-367,394.1-606.8,431.6c-327.4,52.1-677.7-125.1-852.8-431.6c-85.5-150.1-81.3-150.1-408.7-85.5c-302.3,58.4-677.7,166.8-971.7,285.7l-246,95.9v137.6c0,444.1-481.7,775.7-867.4,596.3c-58.4-27.1-114.7-60.5-120.9-73c-8.3-12.5-29.2-22.9-45.9-22.9c-93.8,0-754.8,629.7-998.8,948.7c-183.5,244-204.3,260.6-310.7,260.6C231.4,5010.4,200.1,4997.9,156.3,4952z M2168.4,3471.6c62.6-60.5,70.9-206.4,18.8-289.8c-39.6-64.6-50-68.8-160.6-68.8c-62.6,0-133.4,8.3-154.3,20.8c-79.2,43.8-102.2,248.1-35.4,331.5C1899.4,3540.4,2095.4,3544.6,2168.4,3471.6z M8096.4,3509.1c112.6-43.8,143.9-262.7,50-356.6c-56.3-56.3-266.9-56.3-321.1,2.1c-54.2,58.4-66.7,214.8-22.9,281.5C7858.7,3523.7,7981.7,3552.9,8096.4,3509.1z M5198.1,2844c95.9-43.8,164.7-112.6,196-196c37.5-100.1,27.1-319-18.8-410.8c-141.8-279.4-608.8-277.3-752.7,4.2c-48,93.8-58.4,300.3-18.8,402.4c56.3,146,208.5,239.8,396.2,239.8C5066.7,2883.6,5148,2866.9,5198.1,2844z M2133,1161.3c83.4-33.4,118.9-210.6,62.6-319c-35.4-70.9-68.8-85.5-187.7-85.5c-139.7,0-206.4,66.7-206.4,208.5c0,93.8,8.3,116.8,58.4,158.5C1916.1,1173.8,2051.7,1192.6,2133,1161.3z M8140.2,1123.8c50-41.7,58.4-64.6,58.4-158.5s-8.3-116.8-58.4-158.5c-56.3-50-191.8-68.8-273.1-37.5c-83.4,33.4-118.9,210.6-62.5,321.1c37.5,70.9,56.3,79.2,181.4,81.3C8060.9,1173.8,8096.4,1161.3,8140.2,1123.8z M2216.4-579.8c-100.1-233.5-187.7-433.7-198.1-442c-8.3-8.4-100.1,183.5-206.4,427.4l-189.7,442.1L1814,41.6l193.9,193.9l193.9-193.9l196-196L2216.4-579.8z M8188.1-594.4c-106.3-244-198.1-435.8-206.4-427.4c-10.4,8.3-98,208.5-198.1,442l-181.4,425.4l193.9,193.9l196,196L8184,41.6l193.9-191.8L8188.1-594.4z M5164.7-381.7c58.4-75.1,60.5-241.9,2.1-300.3c-81.3-81.3-271.1-81.3-337.8,2.1c-54.2,64.6-50,227.3,6.3,298.2c37.5,48,58.4,54.2,164.7,54.2C5106.3-327.5,5127.2-333.7,5164.7-381.7z M5164.7-1236.6c43.8-56.3,58.4-193.9,31.3-269c-18.8-45.9-118.9-93.8-196-93.8c-77.2,0-177.2,47.9-196,93.8c-27.1,75.1-12.5,212.7,31.3,269c37.5,47.9,58.4,54.2,164.7,54.2C5106.3-1182.4,5127.2-1188.6,5164.7-1236.6z M5306.5-2416.8l294-298.2l-294-661C5143.9-3740.8,5006.2-4039,5000-4039s-143.9,298.2-306.5,663.1l-294,661l294,298.2c162.6,162.6,300.3,296.1,306.5,296.1S5143.9-2254.1,5306.5-2416.8z"/></g></g>
</svg>