<?xml version="1.0" encoding="utf-8"?>
<!-- Svg Vector Icons : http://www.onlinewebfonts.com/icon -->
<!DOCTYPE svg PUBLIC "-//W3C//DTD SVG 1.1//EN" "http://www.w3.org/Graphics/SVG/1.1/DTD/svg11.dtd">
<svg version="1.1" xmlns="http://www.w3.org/2000/svg" xmlns:xlink="http://www.w3.org/1999/xlink" x="0px" y="0px" viewBox="0 0 1000 1000" enable-background="new 0 0 1000 1000" xml:space="preserve">
<metadata> Svg Vector Icons : http://www.onlinewebfonts.com/icon </metadata>
<g><path d="M652.4,10H354.9L144.5,220.4L503.6,547l359.1-326.6L652.4,10z M204.6,222.5h113.7l176.3,294.8L204.6,222.5z M398.6,204.4l44.4-177.2h121.4l44.4,177.2H398.6z M689,222.5h113.7L512.7,517.3L689,222.5z"/><path d="M500,990c-102.9,0-205.7-39.1-284-117.5C77.4,733.9,58.6,517.2,171.5,357.2c15.7-22.3,46.6-27.6,68.9-11.9c22.3,15.7,27.6,46.6,11.9,68.9c-85,120.5-70.9,283.9,33.6,388.4c118.1,118.1,310.2,118.1,428.3,0c104.5-104.5,118.6-267.7,33.7-388.3c-15.7-22.3-10.4-53.2,11.9-68.9c22.3-15.7,53.1-10.4,68.8,11.9C941.3,517.3,922.6,734,784,872.5C705.8,950.9,602.9,990,500,990z"/></g>
</svg>